<svg xmlns="http://www.w3.org/2000/svg" width="1920" height="1080" viewBox="0 0 1920 1080">
  <defs>
    <linearGradient id="bg" x1="0" y1="0" x2="1" y2="1">
      <stop offset="0%" stop-color="#041423"/>
      <stop offset="45%" stop-color="#0a3044"/>
      <stop offset="100%" stop-color="#1b2740"/>
    </linearGradient>
    <radialGradient id="glowA" cx="50%" cy="50%" r="50%">
      <stop offset="0%" stop-color="#55cfff" stop-opacity="0.44"/>
      <stop offset="100%" stop-color="#55cfff" stop-opacity="0"/>
    </radialGradient>
    <radialGradient id="glowB" cx="50%" cy="50%" r="50%">
      <stop offset="0%" stop-color="#8f7cff" stop-opacity="0.38"/>
      <stop offset="100%" stop-color="#8f7cff" stop-opacity="0"/>
    </radialGradient>
    <radialGradient id="glowC" cx="50%" cy="50%" r="50%">
      <stop offset="0%" stop-color="#44f4cb" stop-opacity="0.32"/>
      <stop offset="100%" stop-color="#44f4cb" stop-opacity="0"/>
    </radialGradient>
  </defs>
  <rect width="1920" height="1080" fill="url(#bg)"/>

  <circle cx="420" cy="280" r="340" fill="url(#glowA)"/>
  <circle cx="1460" cy="260" r="300" fill="url(#glowB)"/>
  <circle cx="980" cy="850" r="410" fill="url(#glowC)"/>

  <g opacity="0.22" stroke="#9ddfff" fill="none">
    <path d="M0 720 Q380 560 760 680 T1520 660 T1920 690" stroke-width="2"/>
    <path d="M0 760 Q420 600 820 730 T1680 710 T1920 740" stroke-width="1.5"/>
    <path d="M0 810 Q500 640 940 780 T1920 790" stroke-width="1.3"/>
  </g>

  <g fill="#eaf7ff" opacity="0.42">
    <circle cx="180" cy="128" r="2"/>
    <circle cx="520" cy="112" r="1.6"/>
    <circle cx="780" cy="168" r="1.8"/>
    <circle cx="1090" cy="118" r="1.5"/>
    <circle cx="1460" cy="148" r="1.9"/>
    <circle cx="1700" cy="98" r="1.7"/>
    <circle cx="260" cy="900" r="1.7"/>
    <circle cx="690" cy="960" r="2"/>
    <circle cx="1280" cy="920" r="1.5"/>
    <circle cx="1660" cy="980" r="1.9"/>
  </g>

  <g opacity="0.15" fill="none" stroke="#b5ecff" stroke-width="1">
    <rect x="120" y="90" width="1680" height="900" rx="36"/>
    <rect x="158" y="128" width="1604" height="824" rx="30"/>
  </g>
</svg>
